<svg xmlns="http://www.w3.org/2000/svg" version="1.1" xmlns:xlink="http://www.w3.org/1999/xlink" xmlns:svgjs="http://svgjs.dev/svgjs" width="100%" height="100%" viewBox="0 0 1000 600"><rect width="1000" height="600" x="0" y="0" fill="#c5efcb"/><g><circle r="166.66666666666666" cx="476.2168070475261" cy="498.4389984200212" fill="#9cc4b2" transform="matrix(0.4038117887409728,0,0,0.40381178874097273,0,98.72444502566054)"/><path d="M460.7109898504104 573.4389812375773L444.2417003075355 573.4389812375773L444.2417003075355 505.5746693003926L367.91693067099453 505.5746693003926L367.91693067099453 573.4389812375773L351.2368823953954 573.4389812375773L351.2368823953954 423.4389803187422L367.91693067099453 423.4389803187422L367.91693067099453 490.6409076673653L444.2417003075355 490.6409076673653L444.2417003075355 423.4389803187422L460.7109898504104 423.4389803187422L460.7109898504104 573.4389812375773ZM497.5636596867521 573.4389812375773L497.5636596867521 423.4389803187422L551.9695211199787 423.4389803187422Q574.3099467887414 423.4389803187422 585.4801596231227 432.6521477778276Q596.6202640671149 441.86531523691303 596.6202640671149 461.5863109418181L596.6202640671149 461.5863109418181Q596.6202640671149 475.6770376439487 591.7427048240697 483.59554431629994Q586.8651455810245 491.483942598262 577.3508942180474 496.0604179374155L577.3508942180474 496.0604179374155Q601.1967394062685 504.2800085136584 601.1967394062685 531.3775598639097L601.1967394062685 531.3775598639097Q601.1967394062685 553.9287442653965 589.273816812158 563.6838627514869Q577.3508942180474 573.4389812375773 554.7997098165606 573.4389812375773L554.7997098165606 573.4389812375773L497.5636596867521 573.4389812375773ZM553.0534231739889 504.4907672463826L553.0534231739889 504.4907672463826L514.2437079623512 504.4907672463826L514.2437079623512 558.6858699468851L554.1373252279989 558.6858699468851Q568.8904365186911 558.6858699468851 576.568076067929 552.5136499171056Q584.2758240075559 546.3414298873261 584.2758240075559 530.7452836657371L584.2758240075559 530.7452836657371Q584.2758240075559 522.495584699105 581.1445514070824 516.8653156963306Q577.98317041622 511.23504669355617 572.7744188788938 508.82637546242273L572.7744188788938 508.82637546242273Q563.2601675159167 504.4907672463826 553.0534231739889 504.4907672463826ZM551.3372449218061 438.1619832190454L551.3372449218061 438.1619832190454L514.2437079623512 438.1619832190454L514.2437079623512 489.97852307880356L552.8426644412646 489.97852307880356Q566.7226324106709 489.97852307880356 573.1056111731748 483.3546771931866Q579.5186983260674 476.7609396979588 579.5186983260674 463.42292275555735Q579.5186983260674 450.0849058131559 572.6840937077263 444.1234445161006Q565.8494890893851 438.1619832190454 551.3372449218061 438.1619832190454Z " fill="#647a67" transform="matrix(0.4038117887409728,0,0,0.40381178874097273,0,98.72444502566054)"/><path d="M833.9820795646228 571.0975440532263L817.7698687346515 571.0975440532263L817.7698687346515 504.2925656057758L742.6364967895373 504.2925656057758L742.6364967895373 571.0975440532263L726.2168170823999 571.0975440532263L726.2168170823999 423.4389803330848L742.6364967895373 423.4389803330848L742.6364967895373 489.5919137380138L817.7698687346515 489.5919137380138L817.7698687346515 423.4389803330848L833.9820795646228 423.4389803330848L833.9820795646228 571.0975440532263ZM942.8143248436995 496.61621715063393L942.8143248436995 496.61621715063393L942.8143248436995 551.2398086673383Q943.4663698862212 559.1532644106699 955.2031806516118 560.6351849618554L955.2031806516118 560.6351849618554L954.5511356090901 573.2315096469338Q937.686879736597 573.2315096469338 929.1510173617676 564.6956472721042L929.1510173617676 564.6956472721042Q909.945327018401 573.2315096469338 890.7396366750345 573.2315096469338L890.7396366750345 573.2315096469338Q876.0093463962488 573.2315096469338 868.332997941107 564.9031161492703Q860.6566494859651 556.5747226516066 860.6566494859651 541.014556864157Q860.6566494859651 525.4247526656836 868.540466818273 518.0744267318026Q876.4539225616046 510.6944623868979 893.3181784340976 509.00507295854624L893.3181784340976 509.00507295854624L926.809582890894 505.8041245679852L926.809582890894 496.61621715063393Q926.809582890894 485.738920304931 922.1267139491474 481.0560513631842Q917.4142065963769 476.3435440104138 909.322920386903 476.3435440104138L909.322920386903 476.3435440104138Q892.251195637244 476.3435440104138 873.8753808025415 478.47750960412117L873.8753808025415 478.47750960412117L867.2660151442533 479.1295546466429L866.6436085127553 466.94816771589655Q890.1172300435366 462.26529877414976 908.2559375900494 462.26529877414976Q926.3946451365621 462.26529877414976 934.6044849901308 470.5936922718133Q942.8143248436995 478.92208576947684 942.8143248436995 496.61621715063393ZM877.0763291931025 540.1550429444694L877.0763291931025 540.1550429444694Q877.0763291931025 559.7756710421677 893.3181784340976 559.7756710421677L893.3181784340976 559.7756710421677Q907.8113614246936 559.7756710421677 921.8896066609576 554.885333223255L921.8896066609576 554.885333223255L926.809582890894 553.1663053838797L926.809582890894 517.9558730877077L895.2150367396154 520.9493526011029Q885.6121915679321 521.8088665207906 881.3442603805173 526.4917354625372Q877.0763291931025 531.2042428153078 877.0763291931025 540.1550429444694ZM1049.7200734062349 496.61621715063393L1049.7200734062349 496.61621715063393L1049.7200734062349 551.2398086673383Q1050.3721184487563 559.1532644106699 1062.1089292141469 560.6351849618554L1062.1089292141469 560.6351849618554L1061.4568841716255 573.2315096469338Q1044.5926282991322 573.2315096469338 1036.0567659243025 564.6956472721042L1036.0567659243025 564.6956472721042Q1016.8510755809364 573.2315096469338 997.6453852375698 573.2315096469338L997.6453852375698 573.2315096469338Q982.9447333698079 573.2315096469338 975.2387465036422 564.9031161492703Q967.5623980485004 556.5747226516066 967.5623980485004 541.014556864157Q967.5623980485004 525.4247526656836 975.4758537918319 518.0744267318026Q983.3596711241398 510.6944623868979 1000.2239269966328 509.00507295854624L1000.2239269966328 509.00507295854624L1033.7153314534294 505.8041245679852L1033.7153314534294 496.61621715063393Q1033.7153314534294 485.738920304931 1029.0324625116828 481.0560513631842Q1024.3199551589119 476.3435440104138 1016.2286689494383 476.3435440104138L1016.2286689494383 476.3435440104138Q999.1569441997792 476.3435440104138 980.8107677761004 478.47750960412117L980.8107677761004 478.47750960412117L974.1717637067886 479.1295546466429L973.5493570752906 466.94816771589655Q997.0229786060718 462.26529877414976 1015.1616861525846 462.26529877414976Q1033.3003936990972 462.26529877414976 1041.5102335526658 470.5936922718133Q1049.7200734062349 478.92208576947684 1049.7200734062349 496.61621715063393ZM984.0117161666615 540.1550429444694L984.0117161666615 540.1550429444694Q984.0117161666615 559.7756710421677 1000.2239269966328 559.7756710421677L1000.2239269966328 559.7756710421677Q1014.7171099872289 559.7756710421677 1028.8249936345164 554.885333223255L1028.8249936345164 554.885333223255L1033.7153314534294 553.1663053838797L1033.7153314534294 517.9558730877077L1002.1504237131743 520.9493526011029Q992.547578541491 521.8088665207906 988.2796473540764 526.4917354625372Q984.0117161666615 531.2042428153078 984.0117161666615 540.1550429444694ZM1136.5902561167395 464.39926436785714L1136.5902561167395 478.2700407269552L1102.6542754945872 478.2700407269552L1102.6542754945872 529.2777460987663Q1102.6542754945872 547.6239225224451 1105.3217324867214 553.3737742610456Q1107.9891894788557 559.1532644106699 1118.0069724048708 559.1532644106699L1118.0069724048708 559.1532644106699L1137.0051938710717 557.8788127366502L1138.0721766679253 571.0975440532263Q1123.7864625544953 573.4389785240999 1116.3175829765196 573.4389785240999L1116.3175829765196 573.4389785240999Q1099.6607959811922 573.4389785240999 1093.2588992000701 565.3476923146259Q1086.857002418948 557.2267676941284 1086.857002418948 534.405191205869L1086.857002418948 534.405191205869L1086.857002418948 478.2700407269552L1071.7117743858303 478.2700407269552L1071.7117743858303 464.39926436785714L1086.857002418948 464.39926436785714L1086.857002418948 431.73773541972463L1102.6542754945872 431.73773541972463L1102.6542754945872 464.39926436785714L1136.5902561167395 464.39926436785714ZM1158.996894850667 571.0975440532263L1158.996894850667 423.4389803330848L1212.5535035705175 423.4389803330848Q1234.5155661390895 423.4389803330848 1245.5114166288872 432.50833410634124Q1256.507267118685 441.5776878795976 1256.507267118685 460.9908471001301L1256.507267118685 460.9908471001301Q1256.507267118685 474.8616234592281 1251.7058445328435 482.6565255584648Q1246.904421947002 490.42178924667775 1237.5090456524845 494.9268277222822L1237.5090456524845 494.9268277222822Q1260.9826671832661 503.0181139317561 1260.9826671832661 529.6926838530984L1260.9826671832661 529.6926838530984Q1260.9826671832661 551.89185370986 1249.245856417875 561.4946988815432Q1237.5090456524845 571.0975440532263 1215.3098757957232 571.0975440532263L1215.3098757957232 571.0975440532263L1158.996894850667 571.0975440532263ZM1213.6204863673715 503.22558280892207L1213.6204863673715 503.22558280892207L1175.4165745578043 503.22558280892207L1175.4165745578043 556.5747226516066L1214.6874691642251 556.5747226516066Q1229.180652154821 556.5747226516066 1236.7680853768916 550.4988483917455Q1244.3555185989626 544.4229741318841 1244.3555185989626 529.0702772216005L1244.3555185989626 529.0702772216005Q1244.3555185989626 520.9493526011029 1241.2434854414723 515.4069697396684Q1238.1610906950064 509.8645868782339 1233.0336455879037 507.49351399633684L1233.0336455879037 507.49351399633684Q1223.6382692933867 503.22558280892207 1213.6204863673715 503.22558280892207ZM1211.901458527996 437.93216332368087L1211.901458527996 437.93216332368087L1175.4165745578043 437.93216332368087L1175.4165745578043 488.93986869549207L1213.4130174902052 488.93986869549207Q1227.0466865611138 488.93986869549207 1233.3596681091649 482.41941827027506Q1239.6430112461921 475.92860625608176 1239.6430112461921 462.7987901725766Q1239.6430112461921 449.66897408907147 1232.9150919438089 443.80056870637617Q1226.2168110524494 437.93216332368087 1211.901458527996 437.93216332368087ZM1362.9980779268885 496.61621715063393L1362.9980779268885 496.61621715063393L1362.9980779268885 551.2398086673383Q1363.6204845583866 559.1532644106699 1375.3572953237767 560.6351849618554L1375.3572953237767 560.6351849618554L1374.7348886922791 573.2315096469338Q1357.870632819786 573.2315096469338 1349.3347704449566 564.6956472721042L1349.3347704449566 564.6956472721042Q1330.1290801015898 573.2315096469338 1310.9233897582235 573.2315096469338L1310.9233897582235 573.2315096469338Q1296.193099479438 573.2315096469338 1288.516751024296 564.9031161492703Q1280.8404025691539 556.5747226516066 1280.8404025691539 541.014556864157Q1280.8404025691539 525.4247526656836 1288.7242199014618 518.0744267318026Q1296.6376756447935 510.6944623868979 1313.472293106263 509.00507295854624L1313.472293106263 509.00507295854624L1346.993335974083 505.8041245679852L1346.993335974083 496.61621715063393Q1346.993335974083 485.738920304931 1342.2808286213126 481.0560513631842Q1337.597959679566 476.3435440104138 1329.4770350590684 476.3435440104138L1329.4770350590684 476.3435440104138Q1312.4053103094093 476.3435440104138 1294.0591338857303 478.47750960412117L1294.0591338857303 478.47750960412117L1287.4497682274423 479.1295546466429L1286.7977231849204 466.94816771589655Q1310.2713447157016 462.26529877414976 1328.4100522622148 462.26529877414976Q1346.548759808727 462.26529877414976 1354.7882380733195 470.5936922718133Q1362.9980779268885 478.92208576947684 1362.9980779268885 496.61621715063393ZM1297.2600822762915 540.1550429444694L1297.2600822762915 540.1550429444694Q1297.2600822762915 559.7756710421677 1313.472293106263 559.7756710421677L1313.472293106263 559.7756710421677Q1327.9951145078826 559.7756710421677 1342.0733597441467 554.885333223255L1342.0733597441467 554.885333223255L1346.993335974083 553.1663053838797L1346.993335974083 517.9558730877077L1315.3987898228042 520.9493526011029Q1305.7959446511209 521.8088665207906 1301.528013463706 526.4917354625372Q1297.2600822762915 531.2042428153078 1297.2600822762915 540.1550429444694ZM1447.912125509828 478.68497848128715L1388.1610888860214 478.68497848128715L1388.1610888860214 464.39926436785714L1467.3549231413845 464.39926436785714L1467.3549231413845 478.68497848128715L1407.6038865175774 556.8118299397963L1467.3549231413845 556.8118299397963L1467.3549231413845 571.0975440532263L1388.1610888860214 571.0975440532263L1388.1610888860214 556.8118299397963L1447.912125509828 478.68497848128715ZM1566.9992610031095 496.61621715063393L1566.9992610031095 496.61621715063393L1566.9992610031095 551.2398086673383Q1567.6513060456314 559.1532644106699 1579.388116811022 560.6351849618554L1579.388116811022 560.6351849618554L1578.7360717685 573.2315096469338Q1561.8718158960073 573.2315096469338 1553.3359535211775 564.6956472721042L1553.3359535211775 564.6956472721042Q1534.1302631778112 573.2315096469338 1514.924572834445 573.2315096469338L1514.924572834445 573.2315096469338Q1500.194282555659 573.2315096469338 1492.5179341005173 564.9031161492703Q1484.8415856453753 556.5747226516066 1484.8415856453753 541.014556864157Q1484.8415856453753 525.4247526656836 1492.7254029776832 518.0744267318026Q1500.638858721015 510.6944623868979 1517.5031145935077 509.00507295854624L1517.5031145935077 509.00507295854624L1550.994519050304 505.8041245679852L1550.994519050304 496.61621715063393Q1550.994519050304 485.738920304931 1546.3116501085574 481.0560513631842Q1541.599142755787 476.3435440104138 1533.5078565463132 476.3435440104138L1533.5078565463132 476.3435440104138Q1516.436131796654 476.3435440104138 1498.0603169619517 478.47750960412117L1498.0603169619517 478.47750960412117L1491.4509513036637 479.1295546466429L1490.8285446721657 466.94816771589655Q1514.3021662029469 462.26529877414976 1532.4408737494596 462.26529877414976Q1550.5795812959723 462.26529877414976 1558.7894211495409 470.5936922718133Q1566.9992610031095 478.92208576947684 1566.9992610031095 496.61621715063393ZM1501.2612653525125 540.1550429444694L1501.2612653525125 540.1550429444694Q1501.2612653525125 559.7756710421677 1517.5031145935077 559.7756710421677L1517.5031145935077 559.7756710421677Q1531.996297584104 559.7756710421677 1546.0745428203677 554.885333223255L1546.0745428203677 554.885333223255L1550.994519050304 553.1663053838797L1550.994519050304 517.9558730877077L1519.3999728990257 520.9493526011029Q1509.7971277273423 521.8088665207906 1505.5291965399274 526.4917354625372Q1501.2612653525125 531.2042428153078 1501.2612653525125 540.1550429444694ZM1673.9050095656448 496.61621715063393L1673.9050095656448 496.61621715063393L1673.9050095656448 551.2398086673383Q1674.5570546081667 559.1532644106699 1686.2938653735573 560.6351849618554L1686.2938653735573 560.6351849618554L1685.6418203310354 573.2315096469338Q1668.7775644585422 573.2315096469338 1660.2417020837129 564.6956472721042L1660.2417020837129 564.6956472721042Q1641.0360117403466 573.2315096469338 1621.8303213969798 573.2315096469338L1621.8303213969798 573.2315096469338Q1607.129669529218 573.2315096469338 1599.4236826630527 564.9031161492703Q1591.7473342079106 556.5747226516066 1591.7473342079106 541.014556864157Q1591.7473342079106 525.4247526656836 1599.6607899512424 518.0744267318026Q1607.5446072835502 510.6944623868979 1624.408863156043 509.00507295854624L1624.408863156043 509.00507295854624L1657.9002676128393 505.8041245679852L1657.9002676128393 496.61621715063393Q1657.9002676128393 485.738920304931 1653.2173986710927 481.0560513631842Q1648.5048913183223 476.3435440104138 1640.4136051088485 476.3435440104138L1640.4136051088485 476.3435440104138Q1623.3418803591894 476.3435440104138 1604.9957039355104 478.47750960412117L1604.9957039355104 478.47750960412117L1598.3566998661986 479.1295546466429L1597.734293234701 466.94816771589655Q1621.2079147654817 462.26529877414976 1639.346622311995 462.26529877414976Q1657.4853298585076 462.26529877414976 1665.6951697120762 470.5936922718133Q1673.9050095656448 478.92208576947684 1673.9050095656448 496.61621715063393ZM1608.1966523260717 540.1550429444694L1608.1966523260717 540.1550429444694Q1608.1966523260717 559.7756710421677 1624.408863156043 559.7756710421677L1624.408863156043 559.7756710421677Q1638.902046146639 559.7756710421677 1653.0099297939269 554.885333223255L1653.0099297939269 554.885333223255L1657.9002676128393 553.1663053838797L1657.9002676128393 517.9558730877077L1626.3353598725844 520.9493526011029Q1616.732514700901 521.8088665207906 1612.4645835134866 526.4917354625372Q1608.1966523260717 531.2042428153078 1608.1966523260717 540.1550429444694ZM1721.504297669729 571.0975440532263L1705.4995557169236 571.0975440532263L1705.4995557169236 464.39926436785714L1721.2968287925632 464.39926436785714L1721.2968287925632 478.92208576947684Q1739.8504740934077 466.1182922072325 1760.330616110794 462.0578298969838L1760.330616110794 462.0578298969838L1760.330616110794 478.2700407269552Q1751.3798159816324 479.98906856633056 1741.6584171658542 483.6049547112236Q1731.9666567610998 487.2208408561167 1726.8392116539976 490.0068514923458L1726.8392116539976 490.0068514923458L1721.504297669729 492.7928621285749L1721.504297669729 571.0975440532263ZM1784.0117065187414 571.0975440532263L1766.5250440147502 571.0975440532263L1766.5250440147502 546.7644086027575L1784.0117065187414 546.7644086027575L1784.0117065187414 571.0975440532263ZM1853.6026956024211 462.26529877414976L1853.6026956024211 462.26529877414976Q1860.6269990150413 462.26529877414976 1877.4912548875345 464.81420212218916L1877.4912548875345 464.81420212218916L1882.6186999946367 465.46624716471086L1881.9666549521148 478.47750960412117Q1864.8949302024557 476.55101288757976 1856.803643992982 476.55101288757976L1856.803643992982 476.55101288757976Q1838.6649364464693 476.55101288757976 1832.1444860212523 485.20542890650415Q1825.6240355960354 493.85984492542855 1825.6240355960354 517.214912812115Q1825.6240355960354 540.5699806988014 1831.7295482669201 549.7578881161526Q1837.8054225267815 558.9457955335038 1857.0111128701483 558.9457955335038L1857.0111128701483 558.9457955335038L1882.1741238292811 557.0192988169624L1882.826168871803 570.2380301335388Q1862.9684334859144 573.2315096469338 1853.1581194370656 573.2315096469338L1853.1581194370656 573.2315096469338Q1828.2025773550981 573.2315096469338 1818.6886474164862 560.4277160846896Q1809.2043558888977 547.6239225224451 1809.2043558888977 517.214912812115Q1809.2043558888977 486.8059031017847 1819.459246103103 474.5356009379672Q1829.684497906284 462.26529877414976 1853.6026956024211 462.26529877414976ZM1900.7574075411494 517.5409353333757Q1900.7574075411494 488.2878236529704 1911.2197666325205 475.2765612135601Q1921.6524873128678 462.26529877414976 1946.5191141617638 462.26529877414976Q1971.3857410106593 462.26529877414976 1981.7295464579352 475.2765612135601Q1992.0733519052114 488.2878236529704 1992.0733519052114 517.5409353333757Q1992.0733519052114 546.7644086027575 1982.2630378563622 560.0127783303575Q1972.452723807513 573.2315096469338 1946.4301989286923 573.2315096469338Q1920.378035638848 573.2315096469338 1910.5677215899987 560.0127783303575Q1900.7574075411494 546.7644086027575 1900.7574075411494 517.5409353333757ZM1917.177087248287 517.214912812115Q1917.177087248287 540.5699806988014 1922.8380237538163 549.9653569933186Q1928.4989602593455 559.3607332878357 1946.5191141617638 559.3607332878357Q1964.568906475205 559.3607332878357 1970.1112893366394 550.0839106374134Q1975.6536721980742 540.8070879869911 1975.6536721980742 517.3334664562099Q1975.6536721980742 493.85984492542855 1969.459244294118 484.9979600293382Q1963.2648163901617 476.13607513324774 1946.5191141617638 476.13607513324774Q1929.773411933365 476.13607513324774 1923.4900687963377 484.9979600293382Q1917.177087248287 493.85984492542855 1917.177087248287 517.214912812115ZM2034.1302571478614 484.4644686309113L2034.1302571478614 571.0975440532263L2018.1255151950554 571.0975440532263L2018.1255151950554 464.39926436785714L2033.922788270695 464.39926436785714L2033.922788270695 471.868143945833Q2049.9275302235005 462.26529877414976 2065.0727582566183 462.26529877414976L2065.0727582566183 462.26529877414976Q2084.9008552314826 462.26529877414976 2092.8143109748144 473.14259561985267L2092.8143109748144 473.14259561985267Q2099.838614387434 468.8746644324379 2111.041933754398 465.5848008088057Q2122.2452531213617 462.26529877414976 2130.7811154961914 462.26529877414976L2130.7811154961914 462.26529877414976Q2152.1207714332654 462.26529877414976 2159.5007357781697 473.67608701827953Q2166.851061712051 485.0868752624093 2166.851061712051 514.7549246971466L2166.851061712051 514.7549246971466L2166.851061712051 571.0975440532263L2150.8463197592455 571.0975440532263L2150.8463197592455 515.1995008625024Q2150.8463197592455 493.00033100574086 2146.578388571831 484.79049115217214Q2142.310457384416 476.55101288757976 2128.439681025318 476.55101288757976L2128.439681025318 476.55101288757976Q2121.4153776126977 476.55101288757976 2113.946498034722 478.596063248216Q2106.4776184567463 480.61147519782855 2102.4171561464973 482.5379719143699L2102.4171561464973 482.5379719143699L2098.3566938362487 484.4644686309113Q2101.142704472478 491.48877204353147 2101.142704472478 515.6144386168344L2101.142704472478 515.6144386168344L2101.142704472478 571.0975440532263L2085.1379625196723 571.0975440532263L2085.1379625196723 516.0293763711663Q2085.1379625196723 493.00033100574086 2080.9589465653285 484.79049115217214Q2076.809569022009 476.55101288757976 2062.7313237857447 476.55101288757976L2062.7313237857447 476.55101288757976Q2055.884850839267 476.55101288757976 2048.741993782552 478.596063248216Q2041.599136725837 480.61147519782855 2037.7461432927544 482.5379719143699L2037.7461432927544 482.5379719143699L2034.1302571478614 484.4644686309113Z " fill="#647a67" transform="matrix(0.4038117887409728,0,0,0.40381178874097273,0,98.72444502566054)"/></g></svg>